<?xml version="1.0" encoding="UTF-8"?>
<svg id="Capa_2" data-name="Capa 2" xmlns="http://www.w3.org/2000/svg" xmlns:xlink="http://www.w3.org/1999/xlink" viewBox="0 0 101.25 44.52">
  <defs>
    <style>
      .cls-1 {
        fill: url(#linear-gradient-2);
      }

      .cls-2 {
        fill: #4d4d4d;
      }

      .cls-3 {
        fill: url(#linear-gradient-4);
      }

      .cls-4 {
        fill: url(#linear-gradient-3);
      }

      .cls-5 {
        fill: url(#linear-gradient-5);
      }

      .cls-6 {
        fill: url(#linear-gradient-8);
      }

      .cls-7 {
        fill: url(#linear-gradient-7);
      }

      .cls-8 {
        fill: url(#linear-gradient-9);
      }

      .cls-9 {
        fill: url(#linear-gradient-6);
      }

      .cls-10 {
        fill: url(#linear-gradient);
      }
    </style>
    <linearGradient id="linear-gradient" x1="28.93" y1="1.12" x2="31.64" y2="42.9" gradientUnits="userSpaceOnUse">
      <stop offset="0" stop-color="#31aa8a"/>
      <stop offset="1" stop-color="#009bbf"/>
    </linearGradient>
    <linearGradient id="linear-gradient-2" x1="17.57" y1="1.85" x2="20.28" y2="43.64" xlink:href="#linear-gradient"/>
    <linearGradient id="linear-gradient-3" x1="24.35" y1="1.41" x2="27.06" y2="43.2" xlink:href="#linear-gradient"/>
    <linearGradient id="linear-gradient-4" x1="14.55" y1="2.05" x2="17.26" y2="43.83" xlink:href="#linear-gradient"/>
    <linearGradient id="linear-gradient-5" x1="15.14" y1="2.01" x2="17.85" y2="43.8" xlink:href="#linear-gradient"/>
    <linearGradient id="linear-gradient-6" x1="6" y1="2.61" x2="8.71" y2="44.39" xlink:href="#linear-gradient"/>
    <linearGradient id="linear-gradient-7" x1="38.74" y1=".48" x2="41.45" y2="42.26" xlink:href="#linear-gradient"/>
    <linearGradient id="linear-gradient-8" x1="22.04" y1="1.56" x2="24.75" y2="43.35" xlink:href="#linear-gradient"/>
    <linearGradient id="linear-gradient-9" x1="30.95" y1=".98" x2="33.65" y2="42.77" xlink:href="#linear-gradient"/>
  </defs>
  <g id="Layer_1" data-name="Layer 1">
    <g>
      <path class="cls-2" d="M54.48,19.69V7.85h3.4c1.23,0,2.17.26,2.81.78s.96,1.29.96,2.31c0,.61-.16,1.15-.49,1.6-.32.45-.77.78-1.33.97.67.15,1.21.49,1.62,1.02s.61,1.13.61,1.82c0,1.05-.33,1.86-.98,2.45s-1.57.88-2.74.88h-3.85ZM55.45,13.16h2.66c.81-.02,1.44-.21,1.89-.59.44-.38.67-.93.67-1.65,0-.76-.23-1.32-.69-1.68-.46-.36-1.16-.54-2.09-.54h-2.43v4.46ZM55.45,14.01v4.84h2.92c.83,0,1.49-.22,1.98-.65.49-.44.73-1.04.73-1.81,0-.73-.23-1.31-.7-1.73-.47-.42-1.11-.64-1.93-.64h-3Z"/>
      <path class="cls-2" d="M69.51,14.76h-3.34v4.93h-.98V7.85h3.74c1.23,0,2.19.31,2.88.92.69.61,1.04,1.47,1.04,2.57,0,.76-.22,1.43-.65,2.01s-1.01.98-1.74,1.2l2.88,5.04v.11h-1.04l-2.78-4.93ZM66.17,13.91h2.98c.82,0,1.47-.24,1.97-.72.5-.48.74-1.1.74-1.86,0-.84-.26-1.48-.77-1.95-.52-.46-1.24-.69-2.17-.69h-2.74v5.21Z"/>
      <path class="cls-2" d="M82.51,16.37h-5.22l-1.19,3.32h-1.02l4.36-11.84h.92l4.36,11.84h-1.01l-1.19-3.32ZM77.58,15.52h4.62l-2.31-6.45-2.31,6.45Z"/>
      <path class="cls-2" d="M88.4,19.69h-.97V7.85h.97v11.84Z"/>
      <path class="cls-2" d="M100.9,19.69h-.97l-6.62-10.13v10.13h-.98V7.85h.98l6.62,10.14V7.85h.96v11.84Z"/>
      <path class="cls-2" d="M60.09,31.31c0-.53-.18-.95-.54-1.26-.36-.31-1.03-.6-1.99-.88s-1.67-.58-2.11-.91c-.63-.47-.95-1.08-.95-1.83s.29-1.33.88-1.79c.59-.46,1.34-.69,2.25-.69.62,0,1.17.12,1.66.37s.87.59,1.14,1.03.4.93.4,1.47h-.79c0-.66-.22-1.18-.65-1.58-.43-.4-1.02-.6-1.75-.6s-1.28.16-1.7.49c-.42.33-.63.75-.63,1.28,0,.49.19.89.57,1.19s.99.58,1.82.81c.84.24,1.47.48,1.9.73s.76.55.97.91c.22.35.33.77.33,1.24,0,.75-.29,1.36-.88,1.82-.59.46-1.36.68-2.32.68-.66,0-1.26-.12-1.81-.36-.55-.24-.96-.58-1.25-1.01-.28-.43-.43-.93-.43-1.49h.79c0,.68.25,1.21.74,1.6.49.39,1.14.59,1.96.59.73,0,1.31-.16,1.75-.49.44-.33.66-.77.66-1.31Z"/>
      <path class="cls-2" d="M69.55,24.77h-3.19v8.9h-.79v-8.9h-3.19v-.68h7.17v.68Z"/>
      <path class="cls-2" d="M78.13,24.08v6.54c0,.65-.14,1.21-.42,1.69-.27.48-.66.85-1.16,1.1-.5.26-1.07.38-1.71.38-.98,0-1.77-.28-2.36-.83s-.9-1.31-.92-2.29v-6.6h.78v6.48c0,.81.22,1.43.67,1.88.45.45,1.06.67,1.82.67s1.38-.22,1.82-.67.67-1.07.67-1.87v-6.49h.79Z"/>
      <path class="cls-2" d="M80.98,33.67v-9.58h2.6c.76,0,1.45.18,2.05.54.61.36,1.08.87,1.42,1.54.34.67.51,1.43.51,2.28v.88c0,.86-.17,1.62-.51,2.28-.34.66-.81,1.17-1.42,1.53s-1.32.54-2.11.54h-2.55ZM81.77,24.77v8.22h1.77c.98,0,1.77-.33,2.36-1,.59-.67.89-1.58.89-2.72v-.84c0-1.1-.29-1.99-.88-2.65-.58-.66-1.35-1-2.31-1h-1.83Z"/>
      <path class="cls-2" d="M91.18,33.67h-.79v-9.58h.79v9.58Z"/>
      <path class="cls-2" d="M101.25,29.4c0,.88-.15,1.66-.44,2.32-.3.67-.72,1.18-1.27,1.54-.55.36-1.19.54-1.91.54-1.09,0-1.97-.4-2.64-1.2s-1.01-1.88-1.01-3.24v-.99c0-.87.15-1.65.45-2.32.3-.67.73-1.19,1.28-1.55.55-.36,1.18-.54,1.9-.54s1.35.18,1.9.53.97.86,1.27,1.51c.3.65.45,1.4.47,2.26v1.15ZM100.47,28.36c0-1.15-.25-2.06-.76-2.71-.51-.65-1.2-.98-2.09-.98s-1.56.33-2.07.98-.77,1.57-.77,2.75v1c0,1.14.26,2.04.77,2.7s1.21,1,2.09,1,1.59-.33,2.09-.98.75-1.57.75-2.74v-1.01Z"/>
    </g>
    <g>
      <path class="cls-10" d="M28.99,7.27c-.12.12-.33.33-.58.65.21.48.78.61,1.43.41.12-.04.25-.09.37-.15.07-.16.12-.33.11-.52-.04-.64-.8-.91-1.33-.38Z"/>
      <path class="cls-1" d="M17.78,12.18c1.43-1.06,1.41-4.11.64-3.6-1,.67-1.23,2.33-1.03,3.78.15-.05.28-.1.39-.18Z"/>
      <path class="cls-4" d="M25.52,27.24c-.6,1.15.18,1.9.57,2.27.22.21.77.55.82.51.12-.87-.07-1.89-.8-2.8-.14-.18-.42-.3-.59.02Z"/>
      <path class="cls-3" d="M17,17.75c.25-.34-.43-1.14-1.01-1.46-.66-.36-1.32-.06-1.98.37,1,.7,2.58,1.66,2.99,1.09Z"/>
      <path class="cls-5" d="M18.07,26.65c-.31-.24-1.02-.58-1.41-.66-.53-.1-1.1.1-1.38.65-.25.92.67,1.12.95,1.13,1.04.31,1.91-.71,2.01-.79.09-.08.08-.15-.16-.33Z"/>
      <path class="cls-9" d="M9.23,24.27c.9-.02,1.28-.92.96-1.5-.18-.34-.58-1.03-2.73-1.73-1.48-.48-2.88-.04-3.07.27-.71,1.19,1.83,2.58,2.42,2.75.78.22,1.58.23,2.42.21Z"/>
      <path class="cls-7" d="M39.75,15.68c-.84,0-2.16.32-2.73.94-.41.44-.47,1.38.32,1.84,1.05.62,3.25.44,3.56.38,2.14-.39,2.2-1.19,1.97-1.74-.4-.97-1.55-1.42-3.12-1.42Z"/>
      <path class="cls-6" d="M45.69,20.48c2.57-3.92-1.79-5.8-1.79-5.8,3.19-4.65-2.13-6.03-2.13-6.03,2.19-2.82-7.59-10.47-10.76-8.16-4.89,3.57-6.77,7.86-7.21,11.84-.29-2.24-1.49-6.78-4.32-9.31C16.94.75,13.46-.96,10.96.61c-4.09,2.56-4.64,6.74-4.64,6.74,0,0-3.12,1.12-2.21,4.46,0,0-5.02,1.78-2.54,6.87,0,0-3.25,3.37-.4,6.03,0,0-2.16,4.28,1.85,6.14,0,0-.5,4.79,3.6,5.86,0,0-.06,1.82,1.55,2.81,1.83,1.13,3.43-.06,3.34.39-.37,1.9,4.96,7.49,9.74,2.75,2.29-2.27,2.92-4.96,2.78-7.48.31,1.55.69,3.03,1.03,4.27.63,2.31,2.89,4.71,4.54,4.84,6.81.52,10.1-8.03,10.1-8.03,4.71,0,4.02-5.48,4.02-5.48,4.17-1.47,1.96-5.51,1.96-5.51,2.32-2.33,0-4.78,0-4.78ZM13.21,4.17c2.77.21,3.29,1.39,3.29,1.39,0,0-4.73-1.44-4.94,2.18-.15,2.64,2.73,4.46,4.74,4.69-.09-1.09.11-1.96.34-2.54.5-1.3,1.76-2.67,2.6-1.88,1.3,1.23.74,4.4-1.59,5.49.09.26.19.5.31.7,1.07,1.78,2.05,3.22,2.85,2.04.71-1.04,1.8-7.43-3.97-11.54-.74-.53-3.28-1.78-4.7-1.09-.72.35-.86-1.24-.5-1.52.36-.27,4.29-2.02,8.76,4.52,2.19,3.2,2.14,6.42,1.73,8.41-.23,1.09-.46,2.9-1.98,2.89-.75,0-1.65-.56-2.52-1.91-.5-.78-.82-1.5-1.03-2.18-.02,0-.05.01-.07.02-2.38.33-6.92-1.66-6.66-6.11.19-3.24,2.82-3.6,3.36-3.55ZM18.28,41.29c-1.52.43-3.45.03-3.72-.18-.73-.29-2.5-2.03,2.5-5.52.26-.22.97-.85.4-1.64-.31-.43-1.64-.6-2.08-.02-1.37,1.81-3.91,4.25-4.96,3.94-.16-.06-.4,0-.64-.31-.42-.57-.01-1.1.23-1.2,2.79-1.25,4.33-3.14,4.21-3.45-.53-1.29-6.02,2.9-8.41.46-1.46-2.21.59-3.81.71-3.87-1.54-.02-2.78-1.05-3.12-1.64-.51-.89-.56-1.64.04-2.23.47-.47,1.39-.9,2.09-1.06-.29-.11-.79-.17-1.5-.76-.88-.72-2-1.79-1.26-3.47.4-.97,1.86-1.05,2.02-1.12-.35-.38-1.14-1.13-1.43-1.94-.63-1.76.51-3.85,2.82-2.56.98.46,1.92,1,2.91,1.45.87.39,1.79.58,2.76.16-.3-.29-.6-.55-.88-.83-.72-.71-2.61-2.18-3.41-3.52-1.85-3.08-.1-4.49.53-4.98.25-.2.77-.23.67-.17,0,0-2.65,1.9,3.24,8.22.19.19.4.35.57.55.17.21.29.14.47.02.65-.42,1.3-.93,2.09-.77.29.06.56.18.81.33.71.42,1.34,1.25,1.68,2.02.27.62.19,1.21-.6,1.42-.82.23-1.57-.02-2.27-.38-.57-.29-1.11-.66-1.66-1-.3.23-.6.43-.87.67-.76.72-1.54.56-2.3.16-3.83-2.27-5.06-2.15-5.33-1.45-.33.87,1.01,2.33,1.92,2.46.84.12,1.79.11,3.55,1.33,1.54,1.07,1.71,2.49,1.6,2.98-.19.86-.46,1.25-.85,1.44-.17.08-.17.14,0,.16.36.05.45.28.56.48.03.67-.05,1.17-.5,1-2.91-1.15-5.34-.11-6.02.49-.25.22-.35.46-.2.71.38.75,3.58.58,4.29.4.87-.21,3.27-.33,3.58-.12.14.1.24.27.29.4.2.49.19,1.07.12,1.09-1.54.04-3.62,0-5.39,1.42-.47.26-1.77,1.9,1.68,1.68.47-.03,3-.62,3.74-.84,1.14-.34,2.23-.57,2.54-.2.2.24.34.43.19.88.25-.11,2.1-.48,3.34.64.37.33,1.77,1.73-.69,3.73-.73.59-2.54,1.68-3.03,2.72-.42.89,2.12,1.2,3.15.57,1.42-.87,2.86-2.76,2.95-6.32.09-3.32-2.51-6.06-2.57-6.13-.93,1.06-3.97,2.88-5.03-.03-.27-.75.19-1.51.71-2.04,1.64-1.27,3.76-.19,4.39.34.37-.52.97-1.94.82-3.08-.06-.5-.24-1.12-.75-1.43-.22-.13-.47-.26-.73-.31-.6-.11-1.15-.68-1.18-1.3-.02-.35.42-.86.87-.86.86.03,1.3.57,1.74,1.26.18.37,1.05,1.23.67,3.8-.06.4-.5,1.99-.65,2.32-.16.35.03.37.19.6.5.71,2.63,2.57,3.16,7.03.01,5.07-3.2,6.91-4.78,7.36ZM33.97,39.15c-.76-.08-2.25-.99-2.96-2.47-.2-.41-.35-.83-.45-1.26-.18-.73.88-1.48,1.33-.64.06.3.39,1.95,1.11,2.52.4.32,1.1.38,1.55,0,.49-.42.76-1.15-.05-2.12-1.63-1.95-6.14-3.15-6.72-3.31-.32,2.21.1,5.03.9,6.51,1.32,2.46,2.4,2.31,2.68,2.13.6-.37,1.24-.65,1.8.1.08.11.26.88-.42,1.26-.7.39-2.14.52-3.39-.2-3.75-2.17-2.68-9.25-2.64-9.69.03-.27-.04-.43-.33-.57-1.27-.6-2.05-1.58-2.13-3.05-.06-.96.29-1.58.73-1.91.41-.31,1.4-.24,1.98.45.57.67.81,1.35.94,2.23.09.58,0,.9.05,1.22.02.11.04.08.15.12,5.13,1.84,6.07,2.52,6.5,2.83,1.02.76,2.44,2.05,2.27,3.79-.07.72-.82,2.26-2.89,2.05ZM44.15,26.84c-.24,1.58-2.57,1.75-3.41,1.78.64.81,1.3,1.98,1.18,3.29-.09.97-1.11,1.62-2.28,1.56-1.27-.07-3.3-.92-4.81-2.22-.53-.46-1.71-1.51-3.08-2.48-.03.06-.07.12-.1.16-.42.58-.49.73-.8.68-.22-.04-.07-.51.01-.73.07-.18.16-.36.25-.55-.87-.57-1.8-1.07-2.68-1.33-.33-.1-.42-.99.14-1.17.89-.3,1.62.27,2.35.68.23.13.47.27.7.42.19-.8.24-1.87-.07-3.47-.4-1.99-1.01-2.83-.59-3.28.25-.26,1.29-.34,1.78,1.39.44,1.54.07,4.08-.44,5.79,1.46.96,2.81,2.01,3.29,2.34,2.07,1.41,4.21,2.89,4.82,1.18.29-.82-.52-1.72-.89-2.17-.07-.08-.14-.15-.21-.22-2.11-.49-4.16-2.24-4.2-2.31-.26-.42.03-.92.5-1.06.4-.11.78-.08,1.08.13.59.43,5.58,3.08,6.15.56.22-.98-1.46-1.27-2.42-1.37-1.07-.11-2.03-.44-2.85-.96-.46-.29-.93-.65-.91-1.19,0-.33.58-.8.88-.64,1.87,1,4.06,1.45,4.93,1.02,1.18-.58.18-1.65-.48-2.2-1.49.28-2.77.07-3.13,0-2.18-.37-3.28-1.69-3.04-3.11.14-.87.32-1.08.54-1.39-.67.23-1.21.41-1.44.46-.96.18-5,1.85-5.36,2-1.04.44-1.8-.78-.96-1.55.51-.47,1.49-.92,2.5-1.17,2.99-.73,7.12-1.86,8.13-2.27,2.19-.89,1.66-2.17,1.56-2.4-.28-.67-1.2-.84-1.92-.85-1.63,1.64-4.81,2.26-5.42,2.33-.42.05-1.35-.3-1.34-.72,0-.13.17-.44.31-.48,3.93-1.04,4.9-2.29,5.33-2.9.31-.43.24-1.06.08-1.27-.27-.37-1.12-.97-3.13-.48-.08.02-.25.08-.37.14-.82,1.29-1.64,1.8-1.91,2.01-1.79,1.44-3.51,1.34-4.5.22-.02-.02-.02-.04-.04-.05-.04-.03-.09-.05-.12-.08-.56.98-1.14,2.41-1.38,4.4-.07.58-.38,3.78,1.26,5.5-.02.04.97.81,1.45,1.01.37.15.5,1.39-.83,1.32-.25-.01-1.26-.72-1.4-.88-1.03-1.07-1.79-3-1.68-5.6.14-3.11,1.28-5.83,2.05-7.19-.03-.56.14-1.08.34-1.54.76-1.75,2.35-3.08,3.2-3.52.39-.2,1.66-.85,3.07-.22.64.29,1.06.73,1.27,1.22.32.74.1,1.59-.11,2.13.76-.11,2.24-.38,3.29.11.68.32,1.41.77,1.58,1.97.07.54-.08,1.17-.29,1.61,0,.01-.02.03-.02.04.31.04.65.09.87.14,2,.42,2.56,2.04,1.86,3.57-.37.81-.99,1.22-1.57,1.62.58.12,1.3.34,1.75.5.39.14,1.62.72,2.07,2.14.2.65.16,1.24-.06,1.7-.27.57-.81.93-1.28,1.15.7.48,1.41,1.15,1.48,1.94.08.92-.58,1.66-1.39,2.07.7.7,1.1,1.35.89,2.71ZM29.32,12.84c.37-.41,1.28-.49,1.62-.16.36.35.43,1.47-.03,1.86-.38.42-.85.45-1.28.07-.54-.48-.69-1.34-.3-1.77Z"/>
      <path class="cls-8" d="M30.32,4.26c-.45.43-.9.89-1.27,1.38.24-.06.49-.1.73-.06,1.34.18,1.76,1.05,1.85,1.58.46-.42.8-.82.88-.95.38-.56,1.42-2.19.39-2.93-.65-.47-1.93.32-2.6.97Z"/>
    </g>
  </g>
</svg>